<mxfile host="Electron" modified="2023-07-30T15:35:18.616Z" agent="Mozilla/5.0 (Macintosh; Intel Mac OS X 10_15_7) AppleWebKit/537.36 (KHTML, like Gecko) draw.io/21.6.5 Chrome/114.0.5735.243 Electron/25.3.1 Safari/537.36" etag="z520S6FMMPy0gICPxgme" version="21.6.5" type="device">
  <diagram name="Page-1" id="W7uYzspbE1znuXGJ4V4a">
    <mxGraphModel dx="1084" dy="603" grid="1" gridSize="10" guides="1" tooltips="1" connect="1" arrows="1" fold="1" page="1" pageScale="1" pageWidth="1169" pageHeight="827" math="0" shadow="0">
      <root>
        <mxCell id="0" />
        <mxCell id="1" parent="0" />
        <mxCell id="OZ9nxeOi-y4bnbNLwbZq-5" value="Host" style="rounded=1;whiteSpace=wrap;html=1;verticalAlign=top;fillColor=none;dashed=1;strokeWidth=2;" parent="1" vertex="1">
          <mxGeometry x="200" y="140" width="680" height="260" as="geometry" />
        </mxCell>
        <mxCell id="OZ9nxeOi-y4bnbNLwbZq-4" value="Docker VM" style="rounded=1;whiteSpace=wrap;html=1;verticalAlign=top;fillColor=none;dashed=1;strokeColor=#6c8ebf;strokeWidth=2;" parent="1" vertex="1">
          <mxGeometry x="480" y="200" width="360" height="160" as="geometry" />
        </mxCell>
        <mxCell id="OZ9nxeOi-y4bnbNLwbZq-7" style="edgeStyle=orthogonalEdgeStyle;rounded=0;orthogonalLoop=1;jettySize=auto;html=1;exitX=0;exitY=0.5;exitDx=0;exitDy=0;entryX=1;entryY=0.5;entryDx=0;entryDy=0;" parent="1" source="OZ9nxeOi-y4bnbNLwbZq-1" target="OZ9nxeOi-y4bnbNLwbZq-3" edge="1">
          <mxGeometry relative="1" as="geometry" />
        </mxCell>
        <mxCell id="OZ9nxeOi-y4bnbNLwbZq-1" value="Prometheus" style="rounded=0;whiteSpace=wrap;html=1;fillColor=#ffe6cc;strokeColor=#d79b00;" parent="1" vertex="1">
          <mxGeometry x="520" y="260" width="120" height="60" as="geometry" />
        </mxCell>
        <mxCell id="OZ9nxeOi-y4bnbNLwbZq-6" style="edgeStyle=orthogonalEdgeStyle;rounded=0;orthogonalLoop=1;jettySize=auto;html=1;exitX=0;exitY=0.5;exitDx=0;exitDy=0;entryX=1;entryY=0.5;entryDx=0;entryDy=0;" parent="1" source="OZ9nxeOi-y4bnbNLwbZq-2" target="OZ9nxeOi-y4bnbNLwbZq-1" edge="1">
          <mxGeometry relative="1" as="geometry" />
        </mxCell>
        <mxCell id="OZ9nxeOi-y4bnbNLwbZq-2" value="Grafana" style="rounded=0;whiteSpace=wrap;html=1;fillColor=#fff2cc;strokeColor=#d6b656;" parent="1" vertex="1">
          <mxGeometry x="680" y="260" width="120" height="60" as="geometry" />
        </mxCell>
        <mxCell id="OZ9nxeOi-y4bnbNLwbZq-3" value="App" style="rounded=0;whiteSpace=wrap;html=1;fillColor=#dae8fc;strokeColor=#6c8ebf;" parent="1" vertex="1">
          <mxGeometry x="240" y="260" width="120" height="60" as="geometry" />
        </mxCell>
        <mxCell id="OZ9nxeOi-y4bnbNLwbZq-8" value="localhost:2112/metrics" style="text;html=1;strokeColor=none;fillColor=none;align=center;verticalAlign=middle;whiteSpace=wrap;rounded=0;" parent="1" vertex="1">
          <mxGeometry x="340" y="320" width="140" height="30" as="geometry" />
        </mxCell>
      </root>
    </mxGraphModel>
  </diagram>
</mxfile>
